<?xml version="1.0" encoding="UTF-8"?>
<svg id="_图层_1" data-name="图层_1" xmlns="http://www.w3.org/2000/svg" version="1.1" xmlns:xlink="http://www.w3.org/1999/xlink" viewBox="0 0 128 128">
  <!-- Generator: Adobe Illustrator 29.0.0, SVG Export Plug-In . SVG Version: 2.1.0 Build 186)  -->
  <defs>
    <style>
      .st0 {
        fill: #fff;
        stroke: #fff;
        stroke-miterlimit: 10;
      }

      .st1 {
        fill: url(#_未命名的渐变_9);
      }
    </style>
    <linearGradient id="_未命名的渐变_9" data-name="未命名的渐变 9" x1="-11.7" y1="107.7" x2="139.7" y2="20.3" gradientUnits="userSpaceOnUse">
      <stop offset="0" stop-color="#6fc4bd"/>
      <stop offset=".5" stop-color="#9e93bf"/>
      <stop offset="1" stop-color="#3b4399"/>
    </linearGradient>
  </defs>
  <rect class="st1" x="0" y="0" width="128" height="128"/>
  <path class="st0" d="M30.9,48.6H14.3c-2.8,0-5-2.2-5-5v-9.9c0-2.8,2.2-5,5-5h16.5c2.8,0,5,2.2,5,5v9.9c0,2.8-2.2,5-5,5ZM77.3,43.6v-9.9c0-2.8-2.2-5-5-5h-28.4c-2.8,0-5,2.2-5,5v9.9c0,2.8,2.2,5,5,5h28.4c2.8,0,5-2.2,5-5ZM118.8,43.6v-9.9c0-2.8-2.2-5-5-5h-28.4c-2.8,0-5,2.2-5,5v9.9c0,2.8,2.2,5,5,5h28.4c2.8,0,5-2.2,5-5ZM78.2,69v-11.7c0-2.8-2.2-5-5-5h-28.4c-2.8,0-5,2.2-5,5v11.7c0,2.8,2.2,5,5,5h28.4c2.8,0,5-2.2,5-5ZM118.8,69v-11.7c0-2.8-2.2-5-5-5h-28.4c-2.8,0-5,2.2-5,5v11.7c0,2.8,2.2,5,5,5h28.4c2.8,0,5-2.2,5-5ZM78.2,94.4v-11.7c0-2.8-2.2-5-5-5h-28.4c-2.8,0-5,2.2-5,5v11.7c0,2.8,2.2,5,5,5h28.4c2.8,0,5-2.2,5-5ZM118.8,94.4v-11.7c0-2.8-2.2-5-5-5h-28.4c-2.8,0-5,2.2-5,5v11.7c0,2.8,2.2,5,5,5h28.4c2.8,0,5-2.2,5-5ZM36.3,69v-11.7c0-2.8-2.2-5-5-5H14.8c-2.8,0-5,2.2-5,5v11.7c0,2.8,2.2,5,5,5h16.5c2.8,0,5-2.2,5-5ZM35.9,94.4v-11.7c0-2.8-2.2-5-5-5H14.3c-2.8,0-5,2.2-5,5v11.7c0,2.8,2.2,5,5,5h16.5c2.8,0,5-2.2,5-5Z"/>
</svg>